<?xml version="1.0" encoding="UTF-8" standalone="no"?>
<!DOCTYPE svg PUBLIC "-//W3C//DTD SVG 1.1//EN"
 "http://www.w3.org/Graphics/SVG/1.1/DTD/svg11.dtd">
<!-- Generated by graphviz version 2.43.0 (0)
 -->
<!-- Title: %3 Pages: 1 -->
<svg width="1734pt" height="476pt"
 viewBox="0.00 0.00 1733.88 476.00" xmlns="http://www.w3.org/2000/svg" xmlns:xlink="http://www.w3.org/1999/xlink">
<g id="graph0" class="graph" transform="scale(1 1) rotate(0) translate(4 472)">
<title>%3</title>
<polygon fill="white" stroke="transparent" points="-4,4 -4,-472 1729.88,-472 1729.88,4 -4,4"/>
<!-- [root] aws_eip.nat_ip (expand) -->
<g id="node1" class="node">
<title>[root] aws_eip.nat_ip (expand)</title>
<polygon fill="none" stroke="black" points="349.88,-108 228.88,-108 228.88,-72 349.88,-72 349.88,-108"/>
<text text-anchor="middle" x="289.38" y="-86.3" font-family="Times,serif" font-size="14.00">aws_eip.nat_ip</text>
</g>
<!-- [root] provider[&quot;registry.terraform.io/hashicorp/aws&quot;] -->
<g id="node16" class="node">
<title>[root] provider[&quot;registry.terraform.io/hashicorp/aws&quot;]</title>
<polygon fill="none" stroke="black" points="325.38,-36 0.12,-18 325.38,0 650.65,-18 325.38,-36"/>
<text text-anchor="middle" x="325.38" y="-14.3" font-family="Times,serif" font-size="14.00">provider[&quot;registry.terraform.io/hashicorp/aws&quot;]</text>
</g>
<!-- [root] aws_eip.nat_ip (expand)&#45;&gt;[root] provider[&quot;registry.terraform.io/hashicorp/aws&quot;] -->
<g id="edge1" class="edge">
<title>[root] aws_eip.nat_ip (expand)&#45;&gt;[root] provider[&quot;registry.terraform.io/hashicorp/aws&quot;]</title>
<path fill="none" stroke="black" d="M298.28,-71.7C302.48,-63.52 307.59,-53.6 312.22,-44.58"/>
<polygon fill="black" stroke="black" points="315.37,-46.12 316.83,-35.62 309.15,-42.91 315.37,-46.12"/>
</g>
<!-- [root] aws_instance.my&#45;priv&#45;ec2 (expand) -->
<g id="node2" class="node">
<title>[root] aws_instance.my&#45;priv&#45;ec2 (expand)</title>
<polygon fill="none" stroke="black" points="1347.38,-252 1147.38,-252 1147.38,-216 1347.38,-216 1347.38,-252"/>
<text text-anchor="middle" x="1247.38" y="-230.3" font-family="Times,serif" font-size="14.00">aws_instance.my&#45;priv&#45;ec2</text>
</g>
<!-- [root] aws_security_group.private&#45;ec2&#45;sg (expand) -->
<g id="node12" class="node">
<title>[root] aws_security_group.private&#45;ec2&#45;sg (expand)</title>
<polygon fill="none" stroke="black" points="1013.88,-180 750.88,-180 750.88,-144 1013.88,-144 1013.88,-180"/>
<text text-anchor="middle" x="882.38" y="-158.3" font-family="Times,serif" font-size="14.00">aws_security_group.private&#45;ec2&#45;sg</text>
</g>
<!-- [root] aws_instance.my&#45;priv&#45;ec2 (expand)&#45;&gt;[root] aws_security_group.private&#45;ec2&#45;sg (expand) -->
<g id="edge2" class="edge">
<title>[root] aws_instance.my&#45;priv&#45;ec2 (expand)&#45;&gt;[root] aws_security_group.private&#45;ec2&#45;sg (expand)</title>
<path fill="none" stroke="black" d="M1158.56,-215.97C1105.02,-205.7 1036.73,-192.6 981.45,-182"/>
<polygon fill="black" stroke="black" points="981.77,-178.5 971.29,-180.05 980.45,-185.37 981.77,-178.5"/>
</g>
<!-- [root] aws_subnet.main_sub (expand) -->
<g id="node14" class="node">
<title>[root] aws_subnet.main_sub (expand)</title>
<polygon fill="none" stroke="black" points="1204.38,-180 1032.38,-180 1032.38,-144 1204.38,-144 1204.38,-180"/>
<text text-anchor="middle" x="1118.38" y="-158.3" font-family="Times,serif" font-size="14.00">aws_subnet.main_sub</text>
</g>
<!-- [root] aws_instance.my&#45;priv&#45;ec2 (expand)&#45;&gt;[root] aws_subnet.main_sub (expand) -->
<g id="edge3" class="edge">
<title>[root] aws_instance.my&#45;priv&#45;ec2 (expand)&#45;&gt;[root] aws_subnet.main_sub (expand)</title>
<path fill="none" stroke="black" d="M1215.82,-215.88C1198.72,-206.6 1177.4,-195.03 1159.06,-185.08"/>
<polygon fill="black" stroke="black" points="1160.52,-181.88 1150.06,-180.19 1157.18,-188.04 1160.52,-181.88"/>
</g>
<!-- [root] var.ami&#45;id -->
<g id="node17" class="node">
<title>[root] var.ami&#45;id</title>
<polygon fill="none" stroke="black" points="1303.88,-180 1222.88,-180 1222.88,-144 1309.88,-144 1309.88,-174 1303.88,-180"/>
<polyline fill="none" stroke="black" points="1303.88,-180 1303.88,-174 "/>
<polyline fill="none" stroke="black" points="1309.88,-174 1303.88,-174 "/>
<text text-anchor="middle" x="1266.38" y="-158.3" font-family="Times,serif" font-size="14.00">var.ami&#45;id</text>
</g>
<!-- [root] aws_instance.my&#45;priv&#45;ec2 (expand)&#45;&gt;[root] var.ami&#45;id -->
<g id="edge4" class="edge">
<title>[root] aws_instance.my&#45;priv&#45;ec2 (expand)&#45;&gt;[root] var.ami&#45;id</title>
<path fill="none" stroke="black" d="M1252.08,-215.7C1254.2,-207.9 1256.74,-198.51 1259.1,-189.83"/>
<polygon fill="black" stroke="black" points="1262.5,-190.67 1261.74,-180.1 1255.74,-188.84 1262.5,-190.67"/>
</g>
<!-- [root] var.instance_type -->
<g id="node20" class="node">
<title>[root] var.instance_type</title>
<polygon fill="none" stroke="black" points="1462.88,-180 1327.88,-180 1327.88,-144 1468.88,-144 1468.88,-174 1462.88,-180"/>
<polyline fill="none" stroke="black" points="1462.88,-180 1462.88,-174 "/>
<polyline fill="none" stroke="black" points="1468.88,-174 1462.88,-174 "/>
<text text-anchor="middle" x="1398.38" y="-158.3" font-family="Times,serif" font-size="14.00">var.instance_type</text>
</g>
<!-- [root] aws_instance.my&#45;priv&#45;ec2 (expand)&#45;&gt;[root] var.instance_type -->
<g id="edge5" class="edge">
<title>[root] aws_instance.my&#45;priv&#45;ec2 (expand)&#45;&gt;[root] var.instance_type</title>
<path fill="none" stroke="black" d="M1284.32,-215.88C1304.87,-206.35 1330.63,-194.41 1352.47,-184.28"/>
<polygon fill="black" stroke="black" points="1353.96,-187.45 1361.56,-180.07 1351.02,-181.1 1353.96,-187.45"/>
</g>
<!-- [root] aws_instance.my&#45;pub&#45;ec2 (expand) -->
<g id="node3" class="node">
<title>[root] aws_instance.my&#45;pub&#45;ec2 (expand)</title>
<polygon fill="none" stroke="black" points="1563.38,-252 1365.38,-252 1365.38,-216 1563.38,-216 1563.38,-252"/>
<text text-anchor="middle" x="1464.38" y="-230.3" font-family="Times,serif" font-size="14.00">aws_instance.my&#45;pub&#45;ec2</text>
</g>
<!-- [root] aws_security_group.pub&#45;ec2&#45;sg (expand) -->
<g id="node13" class="node">
<title>[root] aws_security_group.pub&#45;ec2&#45;sg (expand)</title>
<polygon fill="none" stroke="black" points="1725.88,-180 1486.88,-180 1486.88,-144 1725.88,-144 1725.88,-180"/>
<text text-anchor="middle" x="1606.38" y="-158.3" font-family="Times,serif" font-size="14.00">aws_security_group.pub&#45;ec2&#45;sg</text>
</g>
<!-- [root] aws_instance.my&#45;pub&#45;ec2 (expand)&#45;&gt;[root] aws_security_group.pub&#45;ec2&#45;sg (expand) -->
<g id="edge6" class="edge">
<title>[root] aws_instance.my&#45;pub&#45;ec2 (expand)&#45;&gt;[root] aws_security_group.pub&#45;ec2&#45;sg (expand)</title>
<path fill="none" stroke="black" d="M1499.12,-215.88C1518.2,-206.47 1542.06,-194.71 1562.43,-184.67"/>
<polygon fill="black" stroke="black" points="1564.09,-187.75 1571.51,-180.19 1560.99,-181.47 1564.09,-187.75"/>
</g>
<!-- [root] aws_instance.my&#45;pub&#45;ec2 (expand)&#45;&gt;[root] aws_subnet.main_sub (expand) -->
<g id="edge7" class="edge">
<title>[root] aws_instance.my&#45;pub&#45;ec2 (expand)&#45;&gt;[root] aws_subnet.main_sub (expand)</title>
<path fill="none" stroke="black" d="M1380.18,-215.97C1329.54,-205.72 1264.96,-192.66 1212.62,-182.07"/>
<polygon fill="black" stroke="black" points="1213.15,-178.6 1202.66,-180.05 1211.77,-185.46 1213.15,-178.6"/>
</g>
<!-- [root] aws_instance.my&#45;pub&#45;ec2 (expand)&#45;&gt;[root] var.ami&#45;id -->
<g id="edge8" class="edge">
<title>[root] aws_instance.my&#45;pub&#45;ec2 (expand)&#45;&gt;[root] var.ami&#45;id</title>
<path fill="none" stroke="black" d="M1416.2,-215.97C1386.97,-205.63 1349.63,-192.43 1319.54,-181.79"/>
<polygon fill="black" stroke="black" points="1320.64,-178.47 1310.04,-178.44 1318.3,-185.07 1320.64,-178.47"/>
</g>
<!-- [root] aws_instance.my&#45;pub&#45;ec2 (expand)&#45;&gt;[root] var.instance_type -->
<g id="edge9" class="edge">
<title>[root] aws_instance.my&#45;pub&#45;ec2 (expand)&#45;&gt;[root] var.instance_type</title>
<path fill="none" stroke="black" d="M1448.07,-215.7C1440.07,-207.22 1430.31,-196.86 1421.56,-187.58"/>
<polygon fill="black" stroke="black" points="1423.92,-184.98 1414.51,-180.1 1418.82,-189.78 1423.92,-184.98"/>
</g>
<!-- [root] aws_internet_gateway.mygw (expand) -->
<g id="node4" class="node">
<title>[root] aws_internet_gateway.mygw (expand)</title>
<polygon fill="none" stroke="black" points="652.88,-180 431.88,-180 431.88,-144 652.88,-144 652.88,-180"/>
<text text-anchor="middle" x="542.38" y="-158.3" font-family="Times,serif" font-size="14.00">aws_internet_gateway.mygw</text>
</g>
<!-- [root] aws_vpc.main (expand) -->
<g id="node15" class="node">
<title>[root] aws_vpc.main (expand)</title>
<polygon fill="none" stroke="black" points="780.38,-108 664.38,-108 664.38,-72 780.38,-72 780.38,-108"/>
<text text-anchor="middle" x="722.38" y="-86.3" font-family="Times,serif" font-size="14.00">aws_vpc.main</text>
</g>
<!-- [root] aws_internet_gateway.mygw (expand)&#45;&gt;[root] aws_vpc.main (expand) -->
<g id="edge10" class="edge">
<title>[root] aws_internet_gateway.mygw (expand)&#45;&gt;[root] aws_vpc.main (expand)</title>
<path fill="none" stroke="black" d="M586.41,-143.88C611.35,-134.18 642.72,-121.98 669.04,-111.74"/>
<polygon fill="black" stroke="black" points="670.44,-114.95 678.49,-108.07 667.9,-108.43 670.44,-114.95"/>
</g>
<!-- [root] aws_nat_gateway.mynat (expand) -->
<g id="node5" class="node">
<title>[root] aws_nat_gateway.mynat (expand)</title>
<polygon fill="none" stroke="black" points="291.38,-252 103.38,-252 103.38,-216 291.38,-216 291.38,-252"/>
<text text-anchor="middle" x="197.38" y="-230.3" font-family="Times,serif" font-size="14.00">aws_nat_gateway.mynat</text>
</g>
<!-- [root] aws_nat_gateway.mynat (expand)&#45;&gt;[root] aws_eip.nat_ip (expand) -->
<g id="edge11" class="edge">
<title>[root] aws_nat_gateway.mynat (expand)&#45;&gt;[root] aws_eip.nat_ip (expand)</title>
<path fill="none" stroke="black" d="M208.48,-215.87C224.43,-191.24 253.98,-145.64 272.61,-116.88"/>
<polygon fill="black" stroke="black" points="275.74,-118.48 278.24,-108.19 269.87,-114.68 275.74,-118.48"/>
</g>
<!-- [root] aws_nat_gateway.mynat (expand)&#45;&gt;[root] aws_subnet.main_sub (expand) -->
<g id="edge12" class="edge">
<title>[root] aws_nat_gateway.mynat (expand)&#45;&gt;[root] aws_subnet.main_sub (expand)</title>
<path fill="none" stroke="black" d="M291.62,-217C294.57,-216.65 297.5,-216.31 300.38,-216 617,-182.1 701.98,-215.71 1022.21,-180.04"/>
<polygon fill="black" stroke="black" points="1022.69,-183.51 1032.24,-178.91 1021.91,-176.55 1022.69,-183.51"/>
</g>
<!-- [root] aws_route.private_route (expand) -->
<g id="node6" class="node">
<title>[root] aws_route.private_route (expand)</title>
<polygon fill="none" stroke="black" points="446.38,-324 256.38,-324 256.38,-288 446.38,-288 446.38,-324"/>
<text text-anchor="middle" x="351.38" y="-302.3" font-family="Times,serif" font-size="14.00">aws_route.private_route</text>
</g>
<!-- [root] aws_route.private_route (expand)&#45;&gt;[root] aws_nat_gateway.mynat (expand) -->
<g id="edge13" class="edge">
<title>[root] aws_route.private_route (expand)&#45;&gt;[root] aws_nat_gateway.mynat (expand)</title>
<path fill="none" stroke="black" d="M313.71,-287.88C292.75,-278.35 266.48,-266.41 244.2,-256.28"/>
<polygon fill="black" stroke="black" points="245.48,-253.02 234.93,-252.07 242.59,-259.39 245.48,-253.02"/>
</g>
<!-- [root] aws_route_table.private_routT (expand) -->
<g id="node8" class="node">
<title>[root] aws_route_table.private_routT (expand)</title>
<polygon fill="none" stroke="black" points="800.88,-252 567.88,-252 567.88,-216 800.88,-216 800.88,-252"/>
<text text-anchor="middle" x="684.38" y="-230.3" font-family="Times,serif" font-size="14.00">aws_route_table.private_routT</text>
</g>
<!-- [root] aws_route.private_route (expand)&#45;&gt;[root] aws_route_table.private_routT (expand) -->
<g id="edge14" class="edge">
<title>[root] aws_route.private_route (expand)&#45;&gt;[root] aws_route_table.private_routT (expand)</title>
<path fill="none" stroke="black" d="M432.42,-287.97C481.06,-277.74 543.05,-264.71 593.37,-254.13"/>
<polygon fill="black" stroke="black" points="594.21,-257.53 603.27,-252.05 592.77,-250.68 594.21,-257.53"/>
</g>
<!-- [root] var.destination_cidr_block -->
<g id="node19" class="node">
<title>[root] var.destination_cidr_block</title>
<polygon fill="none" stroke="black" points="505.38,-252 309.38,-252 309.38,-216 511.38,-216 511.38,-246 505.38,-252"/>
<polyline fill="none" stroke="black" points="505.38,-252 505.38,-246 "/>
<polyline fill="none" stroke="black" points="511.38,-246 505.38,-246 "/>
<text text-anchor="middle" x="410.38" y="-230.3" font-family="Times,serif" font-size="14.00">var.destination_cidr_block</text>
</g>
<!-- [root] aws_route.private_route (expand)&#45;&gt;[root] var.destination_cidr_block -->
<g id="edge15" class="edge">
<title>[root] aws_route.private_route (expand)&#45;&gt;[root] var.destination_cidr_block</title>
<path fill="none" stroke="black" d="M365.97,-287.7C373.04,-279.3 381.67,-269.07 389.43,-259.86"/>
<polygon fill="black" stroke="black" points="392.2,-262.01 395.97,-252.1 386.84,-257.49 392.2,-262.01"/>
</g>
<!-- [root] aws_route.public_route (expand) -->
<g id="node7" class="node">
<title>[root] aws_route.public_route (expand)</title>
<polygon fill="none" stroke="black" points="646.38,-324 464.38,-324 464.38,-288 646.38,-288 646.38,-324"/>
<text text-anchor="middle" x="555.38" y="-302.3" font-family="Times,serif" font-size="14.00">aws_route.public_route</text>
</g>
<!-- [root] aws_route.public_route (expand)&#45;&gt;[root] aws_internet_gateway.mygw (expand) -->
<g id="edge16" class="edge">
<title>[root] aws_route.public_route (expand)&#45;&gt;[root] aws_internet_gateway.mygw (expand)</title>
<path fill="none" stroke="black" d="M553.81,-287.87C551.6,-263.67 547.53,-219.21 544.89,-190.39"/>
<polygon fill="black" stroke="black" points="548.35,-189.83 543.96,-180.19 541.38,-190.47 548.35,-189.83"/>
</g>
<!-- [root] aws_route_table.puplic_routeT (expand) -->
<g id="node9" class="node">
<title>[root] aws_route_table.puplic_routeT (expand)</title>
<polygon fill="none" stroke="black" points="1053.38,-252 819.38,-252 819.38,-216 1053.38,-216 1053.38,-252"/>
<text text-anchor="middle" x="936.38" y="-230.3" font-family="Times,serif" font-size="14.00">aws_route_table.puplic_routeT</text>
</g>
<!-- [root] aws_route.public_route (expand)&#45;&gt;[root] aws_route_table.puplic_routeT (expand) -->
<g id="edge17" class="edge">
<title>[root] aws_route.public_route (expand)&#45;&gt;[root] aws_route_table.puplic_routeT (expand)</title>
<path fill="none" stroke="black" d="M646.64,-288.23C702.93,-277.89 775.27,-264.6 833.58,-253.89"/>
<polygon fill="black" stroke="black" points="834.35,-257.3 843.55,-252.06 833.08,-250.42 834.35,-257.3"/>
</g>
<!-- [root] aws_route.public_route (expand)&#45;&gt;[root] var.destination_cidr_block -->
<g id="edge18" class="edge">
<title>[root] aws_route.public_route (expand)&#45;&gt;[root] var.destination_cidr_block</title>
<path fill="none" stroke="black" d="M519.91,-287.88C500.26,-278.39 475.66,-266.51 454.75,-256.42"/>
<polygon fill="black" stroke="black" points="456.26,-253.26 445.74,-252.07 453.22,-259.57 456.26,-253.26"/>
</g>
<!-- [root] aws_route_table.private_routT (expand)&#45;&gt;[root] aws_vpc.main (expand) -->
<g id="edge19" class="edge">
<title>[root] aws_route_table.private_routT (expand)&#45;&gt;[root] aws_vpc.main (expand)</title>
<path fill="none" stroke="black" d="M688.97,-215.87C695.47,-191.56 707.44,-146.82 715.15,-118.01"/>
<polygon fill="black" stroke="black" points="718.58,-118.75 717.78,-108.19 711.82,-116.94 718.58,-118.75"/>
</g>
<!-- [root] aws_route_table.puplic_routeT (expand)&#45;&gt;[root] aws_vpc.main (expand) -->
<g id="edge20" class="edge">
<title>[root] aws_route_table.puplic_routeT (expand)&#45;&gt;[root] aws_vpc.main (expand)</title>
<path fill="none" stroke="black" d="M837.49,-215.99C796.54,-206.99 755.34,-194.75 741.38,-180 725.9,-163.64 721.77,-137.89 721.15,-118.29"/>
<polygon fill="black" stroke="black" points="724.65,-118.12 721.11,-108.13 717.65,-118.14 724.65,-118.12"/>
</g>
<!-- [root] aws_route_table_association.private1 (expand) -->
<g id="node10" class="node">
<title>[root] aws_route_table_association.private1 (expand)</title>
<polygon fill="none" stroke="black" points="947.88,-324 664.88,-324 664.88,-288 947.88,-288 947.88,-324"/>
<text text-anchor="middle" x="806.38" y="-302.3" font-family="Times,serif" font-size="14.00">aws_route_table_association.private1</text>
</g>
<!-- [root] aws_route_table_association.private1 (expand)&#45;&gt;[root] aws_route_table.private_routT (expand) -->
<g id="edge21" class="edge">
<title>[root] aws_route_table_association.private1 (expand)&#45;&gt;[root] aws_route_table.private_routT (expand)</title>
<path fill="none" stroke="black" d="M776.54,-287.88C760.44,-278.64 740.38,-267.13 723.09,-257.21"/>
<polygon fill="black" stroke="black" points="724.76,-254.13 714.34,-252.19 721.27,-260.2 724.76,-254.13"/>
</g>
<!-- [root] aws_route_table_association.private1 (expand)&#45;&gt;[root] aws_subnet.main_sub (expand) -->
<g id="edge22" class="edge">
<title>[root] aws_route_table_association.private1 (expand)&#45;&gt;[root] aws_subnet.main_sub (expand)</title>
<path fill="none" stroke="black" d="M934.65,-287.96C987.34,-279.03 1040.99,-266.85 1062.38,-252 1084.42,-236.71 1099.61,-209.64 1108.55,-189.36"/>
<polygon fill="black" stroke="black" points="1111.82,-190.61 1112.44,-180.03 1105.36,-187.92 1111.82,-190.61"/>
</g>
<!-- [root] aws_route_table_association.public1 (expand) -->
<g id="node11" class="node">
<title>[root] aws_route_table_association.public1 (expand)</title>
<polygon fill="none" stroke="black" points="1240.88,-324 965.88,-324 965.88,-288 1240.88,-288 1240.88,-324"/>
<text text-anchor="middle" x="1103.38" y="-302.3" font-family="Times,serif" font-size="14.00">aws_route_table_association.public1</text>
</g>
<!-- [root] aws_route_table_association.public1 (expand)&#45;&gt;[root] aws_route_table.puplic_routeT (expand) -->
<g id="edge23" class="edge">
<title>[root] aws_route_table_association.public1 (expand)&#45;&gt;[root] aws_route_table.puplic_routeT (expand)</title>
<path fill="none" stroke="black" d="M1062.53,-287.88C1039.6,-278.26 1010.8,-266.19 986.51,-256.01"/>
<polygon fill="black" stroke="black" points="987.68,-252.71 977.1,-252.07 984.97,-259.16 987.68,-252.71"/>
</g>
<!-- [root] aws_route_table_association.public1 (expand)&#45;&gt;[root] aws_subnet.main_sub (expand) -->
<g id="edge24" class="edge">
<title>[root] aws_route_table_association.public1 (expand)&#45;&gt;[root] aws_subnet.main_sub (expand)</title>
<path fill="none" stroke="black" d="M1105.19,-287.87C1107.75,-263.67 1112.44,-219.21 1115.49,-190.39"/>
<polygon fill="black" stroke="black" points="1119,-190.5 1116.57,-180.19 1112.03,-189.77 1119,-190.5"/>
</g>
<!-- [root] aws_security_group.private&#45;ec2&#45;sg (expand)&#45;&gt;[root] aws_vpc.main (expand) -->
<g id="edge25" class="edge">
<title>[root] aws_security_group.private&#45;ec2&#45;sg (expand)&#45;&gt;[root] aws_vpc.main (expand)</title>
<path fill="none" stroke="black" d="M843.24,-143.88C821.37,-134.31 793.92,-122.3 770.72,-112.15"/>
<polygon fill="black" stroke="black" points="771.96,-108.87 761.39,-108.07 769.15,-115.28 771.96,-108.87"/>
</g>
<!-- [root] aws_security_group.pub&#45;ec2&#45;sg (expand)&#45;&gt;[root] aws_vpc.main (expand) -->
<g id="edge26" class="edge">
<title>[root] aws_security_group.pub&#45;ec2&#45;sg (expand)&#45;&gt;[root] aws_vpc.main (expand)</title>
<path fill="none" stroke="black" d="M1486.84,-144.82C1483.99,-144.53 1481.17,-144.26 1478.38,-144 1178.8,-116.17 1100.66,-147.39 802.38,-108 798.53,-107.49 794.59,-106.9 790.63,-106.24"/>
<polygon fill="black" stroke="black" points="791.2,-102.79 780.75,-104.5 789.99,-109.68 791.2,-102.79"/>
</g>
<!-- [root] aws_subnet.main_sub (expand)&#45;&gt;[root] aws_vpc.main (expand) -->
<g id="edge27" class="edge">
<title>[root] aws_subnet.main_sub (expand)&#45;&gt;[root] aws_vpc.main (expand)</title>
<path fill="none" stroke="black" d="M1032.18,-145.51C1029.21,-145 1026.27,-144.49 1023.38,-144 925.29,-127.23 900.19,-126.35 802.38,-108 798.49,-107.27 794.5,-106.5 790.47,-105.7"/>
<polygon fill="black" stroke="black" points="790.92,-102.22 780.43,-103.68 789.54,-109.08 790.92,-102.22"/>
</g>
<!-- [root] var.map_public_ip_on_launch -->
<g id="node21" class="node">
<title>[root] var.map_public_ip_on_launch</title>
<polygon fill="none" stroke="black" points="1027.38,-108 811.38,-108 811.38,-72 1033.38,-72 1033.38,-102 1027.38,-108"/>
<polyline fill="none" stroke="black" points="1027.38,-108 1027.38,-102 "/>
<polyline fill="none" stroke="black" points="1033.38,-102 1027.38,-102 "/>
<text text-anchor="middle" x="922.38" y="-86.3" font-family="Times,serif" font-size="14.00">var.map_public_ip_on_launch</text>
</g>
<!-- [root] aws_subnet.main_sub (expand)&#45;&gt;[root] var.map_public_ip_on_launch -->
<g id="edge28" class="edge">
<title>[root] aws_subnet.main_sub (expand)&#45;&gt;[root] var.map_public_ip_on_launch</title>
<path fill="none" stroke="black" d="M1070.69,-143.97C1043.3,-134.19 1008.72,-121.84 979.85,-111.52"/>
<polygon fill="black" stroke="black" points="980.89,-108.18 970.29,-108.11 978.53,-114.77 980.89,-108.18"/>
</g>
<!-- [root] var.subnets_cidr -->
<g id="node22" class="node">
<title>[root] var.subnets_cidr</title>
<polygon fill="none" stroke="black" points="1179.38,-108 1051.38,-108 1051.38,-72 1185.38,-72 1185.38,-102 1179.38,-108"/>
<polyline fill="none" stroke="black" points="1179.38,-108 1179.38,-102 "/>
<polyline fill="none" stroke="black" points="1185.38,-102 1179.38,-102 "/>
<text text-anchor="middle" x="1118.38" y="-86.3" font-family="Times,serif" font-size="14.00">var.subnets_cidr</text>
</g>
<!-- [root] aws_subnet.main_sub (expand)&#45;&gt;[root] var.subnets_cidr -->
<g id="edge29" class="edge">
<title>[root] aws_subnet.main_sub (expand)&#45;&gt;[root] var.subnets_cidr</title>
<path fill="none" stroke="black" d="M1118.38,-143.7C1118.38,-135.98 1118.38,-126.71 1118.38,-118.11"/>
<polygon fill="black" stroke="black" points="1121.88,-118.1 1118.38,-108.1 1114.88,-118.1 1121.88,-118.1"/>
</g>
<!-- [root] var.subnets_name -->
<g id="node23" class="node">
<title>[root] var.subnets_name</title>
<polygon fill="none" stroke="black" points="1342.88,-108 1203.88,-108 1203.88,-72 1348.88,-72 1348.88,-102 1342.88,-108"/>
<polyline fill="none" stroke="black" points="1342.88,-108 1342.88,-102 "/>
<polyline fill="none" stroke="black" points="1348.88,-102 1342.88,-102 "/>
<text text-anchor="middle" x="1276.38" y="-86.3" font-family="Times,serif" font-size="14.00">var.subnets_name</text>
</g>
<!-- [root] aws_subnet.main_sub (expand)&#45;&gt;[root] var.subnets_name -->
<g id="edge30" class="edge">
<title>[root] aws_subnet.main_sub (expand)&#45;&gt;[root] var.subnets_name</title>
<path fill="none" stroke="black" d="M1157.03,-143.88C1178.63,-134.31 1205.73,-122.3 1228.65,-112.15"/>
<polygon fill="black" stroke="black" points="1230.13,-115.32 1237.86,-108.07 1227.3,-108.92 1230.13,-115.32"/>
</g>
<!-- [root] aws_vpc.main (expand)&#45;&gt;[root] provider[&quot;registry.terraform.io/hashicorp/aws&quot;] -->
<g id="edge31" class="edge">
<title>[root] aws_vpc.main (expand)&#45;&gt;[root] provider[&quot;registry.terraform.io/hashicorp/aws&quot;]</title>
<path fill="none" stroke="black" d="M664.23,-78.75C596.93,-66.88 485.57,-47.24 408.99,-33.74"/>
<polygon fill="black" stroke="black" points="409.35,-30.25 398.9,-31.96 408.14,-37.15 409.35,-30.25"/>
</g>
<!-- [root] var.cidr -->
<g id="node18" class="node">
<title>[root] var.cidr</title>
<polygon fill="none" stroke="black" points="751.88,-36 686.88,-36 686.88,0 757.88,0 757.88,-30 751.88,-36"/>
<polyline fill="none" stroke="black" points="751.88,-36 751.88,-30 "/>
<polyline fill="none" stroke="black" points="757.88,-30 751.88,-30 "/>
<text text-anchor="middle" x="722.38" y="-14.3" font-family="Times,serif" font-size="14.00">var.cidr</text>
</g>
<!-- [root] aws_vpc.main (expand)&#45;&gt;[root] var.cidr -->
<g id="edge32" class="edge">
<title>[root] aws_vpc.main (expand)&#45;&gt;[root] var.cidr</title>
<path fill="none" stroke="black" d="M722.38,-71.7C722.38,-63.98 722.38,-54.71 722.38,-46.11"/>
<polygon fill="black" stroke="black" points="725.88,-46.1 722.38,-36.1 718.88,-46.1 725.88,-46.1"/>
</g>
<!-- [root] output.pub&#45;ec2&#45;ip (expand) -->
<g id="node24" class="node">
<title>[root] output.pub&#45;ec2&#45;ip (expand)</title>
<ellipse fill="none" stroke="black" cx="1464.38" cy="-378" rx="165.17" ry="18"/>
<text text-anchor="middle" x="1464.38" y="-374.3" font-family="Times,serif" font-size="14.00">[root] output.pub&#45;ec2&#45;ip (expand)</text>
</g>
<!-- [root] output.pub&#45;ec2&#45;ip (expand)&#45;&gt;[root] aws_instance.my&#45;pub&#45;ec2 (expand) -->
<g id="edge33" class="edge">
<title>[root] output.pub&#45;ec2&#45;ip (expand)&#45;&gt;[root] aws_instance.my&#45;pub&#45;ec2 (expand)</title>
<path fill="none" stroke="black" d="M1464.38,-359.87C1464.38,-335.67 1464.38,-291.21 1464.38,-262.39"/>
<polygon fill="black" stroke="black" points="1467.88,-262.19 1464.38,-252.19 1460.88,-262.19 1467.88,-262.19"/>
</g>
<!-- [root] provider[&quot;registry.terraform.io/hashicorp/aws&quot;] (close) -->
<g id="node25" class="node">
<title>[root] provider[&quot;registry.terraform.io/hashicorp/aws&quot;] (close)</title>
<ellipse fill="none" stroke="black" cx="989.38" cy="-378" rx="291.65" ry="18"/>
<text text-anchor="middle" x="989.38" y="-374.3" font-family="Times,serif" font-size="14.00">[root] provider[&quot;registry.terraform.io/hashicorp/aws&quot;] (close)</text>
</g>
<!-- [root] provider[&quot;registry.terraform.io/hashicorp/aws&quot;] (close)&#45;&gt;[root] aws_instance.my&#45;priv&#45;ec2 (expand) -->
<g id="edge34" class="edge">
<title>[root] provider[&quot;registry.terraform.io/hashicorp/aws&quot;] (close)&#45;&gt;[root] aws_instance.my&#45;priv&#45;ec2 (expand)</title>
<path fill="none" stroke="black" d="M1141.48,-362.59C1190.12,-354.62 1235.31,-342.44 1250.38,-324 1264.31,-306.95 1261.82,-281.33 1256.86,-261.95"/>
<polygon fill="black" stroke="black" points="1260.18,-260.82 1254.03,-252.19 1253.45,-262.77 1260.18,-260.82"/>
</g>
<!-- [root] provider[&quot;registry.terraform.io/hashicorp/aws&quot;] (close)&#45;&gt;[root] aws_instance.my&#45;pub&#45;ec2 (expand) -->
<g id="edge35" class="edge">
<title>[root] provider[&quot;registry.terraform.io/hashicorp/aws&quot;] (close)&#45;&gt;[root] aws_instance.my&#45;pub&#45;ec2 (expand)</title>
<path fill="none" stroke="black" d="M1105.71,-361.43C1156.65,-352.97 1216.69,-340.74 1269.38,-324 1325.04,-306.32 1385.73,-276.87 1424.37,-256.73"/>
<polygon fill="black" stroke="black" points="1426,-259.83 1433.23,-252.08 1422.75,-253.63 1426,-259.83"/>
</g>
<!-- [root] provider[&quot;registry.terraform.io/hashicorp/aws&quot;] (close)&#45;&gt;[root] aws_route.private_route (expand) -->
<g id="edge36" class="edge">
<title>[root] provider[&quot;registry.terraform.io/hashicorp/aws&quot;] (close)&#45;&gt;[root] aws_route.private_route (expand)</title>
<path fill="none" stroke="black" d="M822.8,-363.19C719.99,-354.01 585.17,-340.8 456.6,-324.12"/>
<polygon fill="black" stroke="black" points="456.93,-320.63 446.56,-322.8 456.02,-327.57 456.93,-320.63"/>
</g>
<!-- [root] provider[&quot;registry.terraform.io/hashicorp/aws&quot;] (close)&#45;&gt;[root] aws_route.public_route (expand) -->
<g id="edge37" class="edge">
<title>[root] provider[&quot;registry.terraform.io/hashicorp/aws&quot;] (close)&#45;&gt;[root] aws_route.public_route (expand)</title>
<path fill="none" stroke="black" d="M887.38,-361.11C823.73,-351.13 739.83,-337.84 656.31,-324.14"/>
<polygon fill="black" stroke="black" points="656.83,-320.68 646.39,-322.52 655.69,-327.59 656.83,-320.68"/>
</g>
<!-- [root] provider[&quot;registry.terraform.io/hashicorp/aws&quot;] (close)&#45;&gt;[root] aws_route_table_association.private1 (expand) -->
<g id="edge38" class="edge">
<title>[root] provider[&quot;registry.terraform.io/hashicorp/aws&quot;] (close)&#45;&gt;[root] aws_route_table_association.private1 (expand)</title>
<path fill="none" stroke="black" d="M945.08,-360.05C919.65,-350.33 887.51,-338.03 860.57,-327.73"/>
<polygon fill="black" stroke="black" points="861.5,-324.34 850.91,-324.03 859,-330.87 861.5,-324.34"/>
</g>
<!-- [root] provider[&quot;registry.terraform.io/hashicorp/aws&quot;] (close)&#45;&gt;[root] aws_route_table_association.public1 (expand) -->
<g id="edge39" class="edge">
<title>[root] provider[&quot;registry.terraform.io/hashicorp/aws&quot;] (close)&#45;&gt;[root] aws_route_table_association.public1 (expand)</title>
<path fill="none" stroke="black" d="M1016.98,-360.05C1031.99,-350.84 1050.75,-339.32 1066.95,-329.37"/>
<polygon fill="black" stroke="black" points="1068.95,-332.25 1075.64,-324.03 1065.29,-326.28 1068.95,-332.25"/>
</g>
<!-- [root] root -->
<g id="node26" class="node">
<title>[root] root</title>
<ellipse fill="none" stroke="black" cx="1226.38" cy="-450" rx="58.49" ry="18"/>
<text text-anchor="middle" x="1226.38" y="-446.3" font-family="Times,serif" font-size="14.00">[root] root</text>
</g>
<!-- [root] root&#45;&gt;[root] output.pub&#45;ec2&#45;ip (expand) -->
<g id="edge40" class="edge">
<title>[root] root&#45;&gt;[root] output.pub&#45;ec2&#45;ip (expand)</title>
<path fill="none" stroke="black" d="M1267.02,-437.05C1303.48,-426.32 1357.61,-410.4 1399.96,-397.95"/>
<polygon fill="black" stroke="black" points="1401.02,-401.28 1409.63,-395.1 1399.04,-394.57 1401.02,-401.28"/>
</g>
<!-- [root] root&#45;&gt;[root] provider[&quot;registry.terraform.io/hashicorp/aws&quot;] (close) -->
<g id="edge41" class="edge">
<title>[root] root&#45;&gt;[root] provider[&quot;registry.terraform.io/hashicorp/aws&quot;] (close)</title>
<path fill="none" stroke="black" d="M1185.64,-436.97C1149.99,-426.44 1097.52,-410.94 1055.8,-398.62"/>
<polygon fill="black" stroke="black" points="1056.57,-395.19 1045.99,-395.72 1054.58,-401.91 1056.57,-395.19"/>
</g>
</g>
</svg>
